<svg xmlns="http://www.w3.org/2000/svg" viewBox="0 0 512.004 512.004" style="enable-background:new 0 0 512.004 512.004" xml:space="preserve" class="u-svg-content"><path d="M195.731 260.023a7.5 7.5 0 0 0-13.548 6.438 20.456 20.456 0 0 1 1.985 8.849v16.084c0 11.384-9.262 20.646-20.646 20.646s-20.646-9.262-20.646-20.646V275.31c0-11.384 9.262-20.646 20.646-20.646a7.5 7.5 0 0 0 0-15c-19.655 0-35.646 15.991-35.646 35.646v16.084c0 19.656 15.991 35.646 35.646 35.646s35.646-15.99 35.646-35.646V275.31a35.334 35.334 0 0 0-3.437-15.287zm184.962 0a7.497 7.497 0 0 0-9.993-3.555 7.5 7.5 0 0 0-3.555 9.993 20.456 20.456 0 0 1 1.985 8.849v16.084c0 11.384-9.262 20.646-20.646 20.646s-20.646-9.262-20.646-20.646V275.31c0-11.384 9.262-20.646 20.646-20.646a7.5 7.5 0 0 0 0-15c-19.656 0-35.646 15.991-35.646 35.646v16.084c0 19.656 15.991 35.646 35.646 35.646s35.646-15.99 35.646-35.646V275.31a35.334 35.334 0 0 0-3.437-15.287zm-46.731 146.695a7.5 7.5 0 0 0-10.591-.576c-7.508 6.733-17.154 10.442-27.16 10.442-8.231 0-16.159-2.444-22.927-7.068-10.336-7.061-24.226-7.062-34.564 0-6.768 4.624-14.696 7.068-22.927 7.068-10.006 0-19.651-3.708-27.16-10.442a7.5 7.5 0 0 0-10.591.576 7.5 7.5 0 0 0 .576 10.591c10.264 9.206 23.467 14.275 37.175 14.275.181 0 .361-.008.542-.01v8.594c0 21.873 17.795 39.667 39.667 39.667s39.667-17.794 39.667-39.667v-8.594c.181.002.361.01.542.01 13.708 0 26.91-5.07 37.175-14.275a7.5 7.5 0 0 0 .576-10.591zm-53.292 33.45c0 13.602-11.066 24.667-24.667 24.667s-24.667-11.065-24.667-24.667v-10.791a55.4 55.4 0 0 0 15.847-7.476c.426-.291.869-.549 1.32-.792v11.017a7.5 7.5 0 0 0 15 0v-11.017c.451.243.895.501 1.32.792a55.4 55.4 0 0 0 15.847 7.476v10.791zm8.089-96.92c-2.786-5.834-8.533-9.458-14.998-9.458h-35.516c-6.465 0-12.212 3.625-14.998 9.458-2.786 5.834-1.992 12.581 2.072 17.608l17.759 21.972a16.55 16.55 0 0 0 12.925 6.171 16.55 16.55 0 0 0 12.925-6.171l17.759-21.971c4.063-5.028 4.857-11.775 2.072-17.609zm-13.739 8.179-17.759 21.97a1.572 1.572 0 0 1-1.26.602c-.353 0-.858-.104-1.26-.601l-17.759-21.971c-.424-.526-.492-1.103-.2-1.715s.784-.922 1.462-.922h35.516c.678 0 1.17.31 1.462.922.292.611.224 1.189-.202 1.715z"/><path d="M491.162 360.549c-4.126-1.109-8.518-2.102-13.093-2.994 6.974-21.134 10.604-43.38 10.604-66.161 0-28.146-5.531-55.478-16.084-80.898V23.617c0-9.187-5.153-17.347-13.448-21.295S441.264-.48 434.134 5.313l-97.343 79.091c-25.52-8.94-52.775-13.619-80.79-13.619s-55.27 4.679-80.79 13.619L77.87 5.313C70.74-.48 61.157-1.627 52.863 2.322 44.568 6.27 39.415 14.43 39.415 23.617v186.88c-10.552 25.419-16.084 52.752-16.084 80.897 0 22.781 3.631 45.028 10.604 66.161-4.575.892-8.967 1.884-13.093 2.994a7.5 7.5 0 1 0 3.894 14.485c4.498-1.209 9.366-2.272 14.481-3.211 5.046 12.239 11.264 24.031 18.587 35.262-7.777 3.222-15.329 6.672-22.391 10.345a7.5 7.5 0 0 0 3.466 14.156 7.47 7.47 0 0 0 3.454-.847c7.575-3.939 15.815-7.628 24.332-11.052a227.093 227.093 0 0 0 24.961 27.846c43.928 41.575 102.304 64.471 164.375 64.471s120.448-22.896 164.375-64.471a226.964 226.964 0 0 0 24.963-27.847c8.515 3.424 16.755 7.114 24.331 11.053a7.5 7.5 0 0 0 10.115-3.195 7.5 7.5 0 0 0-3.194-10.114c-7.062-3.672-14.614-7.123-22.391-10.344 7.323-11.231 13.541-23.023 18.587-35.262 5.114.939 9.983 2.002 14.48 3.211a7.527 7.527 0 0 0 1.952.259 7.503 7.503 0 0 0 7.238-5.555 7.498 7.498 0 0 0-5.295-9.19zM443.594 16.955c2.634-2.14 6.037-2.548 9.102-1.088 3.043 1.448 4.864 4.317 4.89 7.68l-14.494 16.34a7.5 7.5 0 1 0 11.222 9.954l3.277-3.694v134.921c-10.108-16.542-22.558-31.942-37.212-45.811a233.02 233.02 0 0 0-24.147-19.935l36.821-41.512a7.5 7.5 0 1 0-11.222-9.954l-38.168 43.03a234.337 234.337 0 0 0-30.82-16.195l90.751-73.736zM59.309 15.866c3.066-1.459 6.468-1.051 9.102 1.088l90.751 73.736a234.343 234.343 0 0 0-30.82 16.196l-73.923-83.34c.026-3.363 1.847-6.232 4.89-7.68zm-4.894 30.28 61.359 69.175a232.892 232.892 0 0 0-24.147 19.935c-14.654 13.869-27.104 29.27-37.212 45.812V46.146zM462.98 355.053c-45.919-6.452-101.338-4.894-104.168-4.809a7.5 7.5 0 0 0 .451 14.993c.661-.02 53.833-1.513 98.104 4.207a201.379 201.379 0 0 1-17.581 32.007c-44.225-16.348-90.399-25.459-92.884-25.943a7.502 7.502 0 0 0-2.868 14.724c.577.112 44.212 8.719 86.53 23.857-39.719 50.29-103.181 82.914-174.562 82.914-71.379 0-134.841-32.623-174.56-82.912 42.306-15.131 85.952-23.747 86.529-23.86a7.501 7.501 0 0 0-2.869-14.723c-2.485.484-48.659 9.595-92.884 25.943a201.395 201.395 0 0 1-17.582-32.009c44.27-5.719 97.442-4.227 98.104-4.206 4.145.152 7.597-3.131 7.722-7.271a7.499 7.499 0 0 0-7.271-7.722c-2.831-.086-58.25-1.643-104.169 4.81a194.451 194.451 0 0 1-10.692-63.658c0-113.373 97.647-205.609 217.671-205.609s217.671 92.236 217.671 205.609c0 22.211-3.763 43.604-10.692 63.658z"/><g/><g/><g/><g/><g/><g/><g/><g/><g/><g/><g/><g/><g/><g/><g/></svg>